<svg width="102" height="101" viewBox="0 0 102 101" fill="none" xmlns="http://www.w3.org/2000/svg">
<path d="M22.8838 75.7926C27.3289 75.488 31.8036 76.1927 36.2427 75.8116C38.3598 75.629 40.4468 75.1999 42.5188 74.7288C43.5331 74.4982 44.5488 74.2567 45.5846 74.1616C48.2933 73.9116 50.9815 74.6758 53.5952 75.43C53.5952 75.43 65.0841 80.7658 65.8938 81.2355C66.5555 81.6191 67.1576 82.0972 67.7973 82.5163C69.2212 83.4485 70.7566 84.2377 72.3775 84.7569C79.4738 87.0284 88.2771 92.0302 92.8792 95.8317" stroke="black" stroke-width="2" stroke-linecap="round" stroke-linejoin="round"/>
<path d="M58.0352 64.252C62.0007 67.0817 65.0975 70.9322 68.5213 74.3976C69.214 75.0977 69.9247 75.7874 70.7219 76.3636C71.6181 77.0097 72.6129 77.5039 73.6027 77.995C76.4339 79.4008 78.665 80.006 81.4962 81.4119C81.4962 81.4119 86.676 83.2278 90.8776 88.4297C93.9054 92.1806 95.0787 92.8308 96.8791 94.6313" stroke="black" stroke-width="2" stroke-linecap="round" stroke-linejoin="round"/>
<path d="M93.881 94.8324C93.1088 96.4463 91.9805 96.3588 91.6805 97.033C91.5668 97.291 91.549 97.5812 91.6305 97.8512C91.6693 97.982 91.7496 98.0967 91.8593 98.1779C91.969 98.2591 92.1021 98.3024 92.2386 98.3013H97.6085C97.6973 98.3011 97.785 98.2811 97.8652 98.2429C97.9454 98.2047 98.0161 98.1492 98.0722 98.0803C98.1283 98.0115 98.1685 97.931 98.1897 97.8448C98.211 97.7585 98.2128 97.6687 98.1951 97.5816C98.0286 96.7979 97.6565 95.5356 96.8828 94.6309" stroke="black" stroke-width="2" stroke-linecap="round" stroke-linejoin="round"/>
<path d="M36.8986 65.3262C30.9375 65.9048 24.7885 66.3419 19.269 68.6675C18.8574 68.8411 18.2418 69.1406 17.9187 69.3012C17.7726 69.3708 17.6343 69.4556 17.5061 69.5543C16.8103 70.1068 16.3018 70.8603 16.0497 71.7123C15.7997 72.565 15.8227 73.4703 15.8467 74.3585C16.0327 81.1962 17.1585 88.073 16.4043 94.8717C16.3543 95.3109 14.988 95.937 14.988 95.937L10.4163 98.1931C10.1042 98.3471 9.78462 98.5032 9.43953 98.5432C9.11795 98.5827 8.44977 98.2321 7.94214 98.7052C7.51003 99.1083 7.82061 99.9991 8.1762 99.9991H19.3181C19.3181 99.9991 21.052 100.033 21.2 99.71C21.4301 99.2074 21.7897 98.7678 21.7417 98.2166C21.6937 97.6655 21.4831 97.1443 21.3346 96.6122C20.8345 94.8202 21.0345 92.9047 21.4346 91.0888C21.8347 89.2728 22.4419 87.5014 22.7524 85.6669C23.2967 82.4112 22.9045 79.0678 21.6217 76.0264" stroke="black" stroke-width="2" stroke-linecap="round" stroke-linejoin="round"/>
<path d="M61.5175 42.1387C59.797 43.1799 58.7508 45.0199 57.7785 46.7804L56.3577 49.353C55.5515 50.8134 54.7362 52.2958 54.3481 53.9177C53.96 55.5396 54.0446 57.3471 54.9483 58.7479C54.9483 58.7479 57.1794 62.9685 57.9536 64.4594" stroke="black" stroke-width="2" stroke-linecap="round" stroke-linejoin="round"/>
<path d="M22.1689 36.543C24.5396 37.3792 27.2012 37.0341 29.5708 37.8668C30.9042 38.3349 32.1075 39.1636 33.4863 39.4722C34.3566 39.6668 35.2768 39.6488 36.1105 39.9648C37.5809 40.5225 38.4881 41.9979 39.0768 43.4562C39.7203 45.0517 40.1158 46.7363 40.2496 48.4515C40.2496 48.4515 40.3996 53.2252 40.2851 54.6921C40.0075 58.2765 38.1285 61.5984 37.9115 65.1873" stroke="black" stroke-width="2" stroke-linecap="round" stroke-linejoin="round"/>
<path d="M44.7851 58.5176C44.7506 58.9555 44.7999 59.3959 44.9301 59.8154" stroke="black" stroke-width="2" stroke-linecap="round" stroke-linejoin="round"/>
<path d="M39.0996 60.1379C41.5166 61.3315 44.2178 61.8297 46.9016 61.5768C49.5678 61.3207 52.5571 60.1054 54.6866 58.4805" stroke="black" stroke-width="2" stroke-linecap="round" stroke-linejoin="round"/>
<path d="M42.2607 50.2148C43.9067 50.2404 44.4878 50.3034 46.1337 50.3289C46.9039 50.3409 47.6741 50.3529 48.4423 50.4069C50.6644 50.5632 52.8482 51.0666 54.9145 51.8988" stroke="black" stroke-width="2" stroke-linecap="round" stroke-linejoin="round"/>
<path d="M58.3545 42.5781C58.482 41.9625 58.8161 41.4053 59.2272 40.9277C59.6383 40.4501 60.1274 40.05 60.6111 39.6504" stroke="black" stroke-width="2" stroke-linecap="round" stroke-linejoin="round"/>
<path d="M53.8661 30.6074C53.8001 31.7402 53.9906 34.1203 54.5113 35.1286C55.0319 36.1368 56.1117 36.925 57.241 36.803" stroke="black" stroke-width="2" stroke-linecap="round" stroke-linejoin="round"/>
<path d="M57.2393 36.9458C57.7844 36.1706 58.8302 35.9561 59.7754 35.8916C61.3838 35.781 62.9972 35.9221 64.6086 35.9546C66.2201 35.9871 67.4709 35.8101 69.1828 35.571L71.0588 35.2279C72.9893 34.5107 74.9448 33.787 76.9933 33.5775C77.607 33.514 78.2241 33.4975 78.8408 33.4845C82.6198 33.4039 86.0011 33.4585 89.7761 33.6485L91.2815 33.3984C94.2621 33.5077 97.2241 33.9179 100.122 34.6228L100.786 34.9413C100.994 34.9413 101.066 35.2569 100.933 35.4155C100.799 35.574 100.571 35.608 100.365 35.631L96.0532 36.1096C95.0485 36.2212 94.0427 36.3327 93.0324 36.3662C91.9507 36.4022 90.9589 35.7095 89.8816 35.7935C89.6816 35.8091 88.6093 36.0436 88.6093 36.0436C86.4137 36.5743 85.573 36.7148 83.3189 36.8608C81.441 36.9829 79.5325 36.9729 77.7175 37.476C76.1891 37.8996 74.7853 38.6728 73.3444 39.337C69.6125 41.0555 65.5927 42.0627 61.4913 42.3067" stroke="black" stroke-width="2" stroke-linecap="round" stroke-linejoin="round"/>
<path d="M77.7744 36.0781C78.0745 36.2282 78.161 37.0884 77.9355 37.339" stroke="black" stroke-width="2" stroke-linecap="round" stroke-linejoin="round"/>
<path d="M38.0166 36.7207L38.9333 37.8245C39.3494 38.3246 39.769 38.8317 40.0746 39.4074" stroke="black" stroke-width="2" stroke-linecap="round" stroke-linejoin="round"/>
<path d="M47.8789 32.0703C48.0004 32.866 47.9224 33.6777 47.8444 34.4789L47.6533 36.4404" stroke="black" stroke-width="2" stroke-linecap="round" stroke-linejoin="round"/>
<path d="M47.8633 34.4075C46.2629 36.2079 44.2124 35.0911 43.1966 34.7806C42.557 34.5845 41.0761 33.9804 40.4074 33.9804C38.3429 33.9699 36.2784 33.9399 34.2148 33.8803C29.5336 33.7403 25.2545 33.4117 20.1977 33.3712L15.7021 33.2057C14.4968 33.1441 13.292 33.2827 12.0867 33.2217C9.40397 33.0851 6.71478 32.9476 4.0636 32.517C3.22739 32.3815 2.36066 32.2169 1.54495 32.4465C1.54495 32.4465 1.00631 32.5685 1.02582 32.8901C1.03982 33.1216 0.931796 33.3512 1.07583 33.5312C1.21987 33.7113 1.44043 33.8143 1.65048 33.9118L2.62273 34.362C3.63749 34.8326 4.8573 35.1052 5.93108 35.4192C6.8018 35.6738 5.30292 36.2229 6.20915 36.261C6.20915 36.261 9.29094 36.315 9.76906 36.1634C10.7728 35.8453 11.7856 35.6218 12.8333 35.7268C13.345 35.7768 20.1457 36.7701 22.2488 36.58" stroke="black" stroke-width="2" stroke-linecap="round" stroke-linejoin="round"/>
<path d="M51.0127 67.3637C52.213 67.0836 55.1953 66.1334 56.3541 65.7163C56.9542 65.4992 57.5989 65.2247 57.9075 64.666" stroke="black" stroke-width="2" stroke-linecap="round" stroke-linejoin="round"/>
<path d="M45.2949 61.9727C45.5619 63.3234 45.9008 64.659 46.3102 65.9737" stroke="black" stroke-width="2" stroke-linecap="round" stroke-linejoin="round"/>
<path d="M39.1699 66.457C39.666 66.8271 40.1097 67.2632 40.5508 67.6973C41.2009 68.3395 45.21 71.7814 45.8621 72.4236" stroke="black" stroke-width="2" stroke-linecap="round" stroke-linejoin="round"/>
<path d="M49.1934 38.2298C49.2994 38.3854 49.555 38.3574 49.6875 38.2233C49.82 38.0893 49.862 37.8932 49.898 37.7082C50.3557 35.3621 50.4072 34.9575 50.8648 32.6094" stroke="black" stroke-width="2" stroke-linecap="round" stroke-linejoin="round"/>
<path d="M55.8586 36.666C55.712 38.473 55.6365 40.2954 55.8461 42.0964C56.0556 43.8974 56.5608 45.6848 57.508 47.2307" stroke="black" stroke-width="2" stroke-linecap="round" stroke-linejoin="round"/>
<path d="M40.5254 42.661C41.0065 41.7358 41.6452 40.9016 42.1603 39.9949C42.9935 38.5248 43.4904 36.8883 43.6152 35.2031" stroke="black" stroke-width="2" stroke-linecap="round" stroke-linejoin="round"/>
<path d="M45.0791 35.5312L45.1611 38.1094C45.1781 38.648 45.1961 39.1917 45.3277 39.7143C45.4592 40.237 45.7158 40.7441 46.1349 41.0827C46.721 41.5558 47.5267 41.6328 48.2799 41.6328C49.2062 41.6273 50.1649 41.5153 50.9596 41.0397C51.2937 40.8396 51.5888 40.5815 51.8693 40.3115C53.1786 39.0486 54.1965 37.5152 54.8521 35.8183" stroke="black" stroke-width="2" stroke-linecap="round" stroke-linejoin="round"/>
<path d="M47.0631 20.8047C46.1628 21.2823 45.7127 21.8074 45.4697 22.7967C45.3416 23.3218 45.3866 23.878 45.2516 24.4016C45.0601 25.1453 44.5234 25.752 43.9348 26.2456C43.8432 26.3221 43.7432 26.4081 43.7247 26.5262C43.7027 26.6677 43.8047 26.7947 43.8868 26.9123C44.1255 27.2583 44.2302 27.6795 44.1813 28.0971C44.1488 28.3641 44.0558 28.6472 44.1623 28.8923C44.2098 29.0018 44.2929 29.0923 44.3444 29.1998C44.3983 29.3312 44.4262 29.4719 44.4264 29.6139C44.4454 29.958 44.4389 30.3056 44.5094 30.6427C44.5799 30.9798 44.7405 31.3144 45.0235 31.5104C45.3236 31.717 45.7177 31.741 46.0708 31.6565C46.4239 31.5719 46.7455 31.3919 47.0621 31.2134" stroke="black" stroke-width="2" stroke-linecap="round" stroke-linejoin="round"/>
<path d="M50.1279 21.9121C50.6921 22.2902 51.2607 22.7533 51.4493 23.4055C51.5408 23.7211 51.5343 24.0557 51.5768 24.3812C51.6193 24.7068 51.7243 25.0469 51.9769 25.255" stroke="black" stroke-width="2" stroke-linecap="round" stroke-linejoin="round"/>
<path d="M51.6921 25.6354C51.8832 25.4078 52.2233 25.3303 52.5039 25.4283C52.6431 25.4814 52.7673 25.5677 52.8657 25.6797C52.964 25.7917 53.0334 25.926 53.068 26.071C53.1305 26.3246 53.0925 26.5931 53.024 26.8452C52.9145 27.2453 52.5519 27.805 52.2528 28.0955C51.9537 28.3861 51.5406 28.5696 51.125 28.5421" stroke="black" stroke-width="2" stroke-linecap="round" stroke-linejoin="round"/>
<path d="M54.22 33.4377C54.7316 33.4007 55.2457 33.2812 55.6863 33.0176C56.127 32.7541 56.4865 32.336 56.6131 31.8383C56.6589 31.6272 56.6837 31.4121 56.6871 31.1962C56.7371 30.2024 56.4075 29.4417 55.8664 28.6065C55.8664 28.6065 57.7234 26.3559 55.8789 22.1258C54.8661 19.8032 51.2907 19.4031 50.459 19.3841C49.6273 19.3651 48.7726 19.5502 48.0879 20.0238" stroke="black" stroke-width="2" stroke-linecap="round" stroke-linejoin="round"/>
<path d="M45.7627 47.7093C46.6014 47.0746 46.9895 45.9018 46.6944 44.8926" stroke="black" stroke-width="2" stroke-linecap="round" stroke-linejoin="round"/>
<path d="M49.2994 44.291C49.0254 45.0967 48.7493 45.9264 48.7878 46.7767C48.8263 47.6269 49.2584 48.5146 50.0421 48.8467" stroke="black" stroke-width="2" stroke-linecap="round" stroke-linejoin="round"/>
<path d="M54.1992 29.1091C54.8066 28.9674 55.3981 28.7646 55.9647 28.5039" stroke="black" stroke-width="2" stroke-linecap="round" stroke-linejoin="round"/>
<path d="M91.4805 94.6335C92.1331 94.1639 93.661 92.7785 94.1882 92.1719" stroke="black" stroke-width="2" stroke-linecap="round" stroke-linejoin="round"/>
<path d="M16.4922 93.9961C17.2734 94.1916 20.1496 94.3692 20.9843 94.1917" stroke="black" stroke-width="2" stroke-linecap="round" stroke-linejoin="round"/>
</svg>
