<svg width="101" height="100" viewBox="0 0 101 100" fill="none" xmlns="http://www.w3.org/2000/svg">
<g clip-path="url(#clip0_78_188)">
<path d="M50.4331 100H42.9899C41.7411 100 40.6598 99.2412 40.235 98.0672C39.8102 96.8928 40.1557 95.618 41.1155 94.8189L44.1133 92.3232C43.7725 90.9568 43.4507 89.6273 43.1536 88.36C42.969 87.5723 43.4581 86.7842 44.2456 86.5996C45.0325 86.4135 45.8214 86.9037 46.0059 87.6916C46.3635 89.2182 46.7581 90.8363 47.1784 92.5012C47.3163 93.0477 47.1286 93.625 46.6954 93.9855L42.9913 97.0693L50.4331 97.0703V80.9336H44.5333C44.6163 81.3496 44.7018 81.7709 44.7903 82.1984C44.9544 82.9908 44.445 83.7658 43.6528 83.9299C42.8606 84.0924 42.0854 83.5844 41.9214 82.7924C39.0329 68.8385 39.06 61.1596 39.1012 49.5361C39.1051 48.4578 39.1091 47.3461 39.1106 46.1934H31.5003C30.3798 46.1934 29.3372 45.6898 28.6399 44.8121C27.9434 43.935 27.6891 42.8066 27.9426 41.7166C28.4393 39.5805 29.1716 37.4021 30.1188 35.2422C30.4438 34.5012 31.3075 34.1637 32.0487 34.4891C32.7895 34.8139 33.1268 35.6779 32.8018 36.4188C31.9268 38.4141 31.252 40.4197 30.7962 42.3801C30.7278 42.6738 30.8532 42.8885 30.9341 42.99C31.0153 43.0922 31.1967 43.2637 31.5001 43.2637H45.5589C46.2591 43.2637 46.9163 42.99 47.4094 42.4928C47.8936 42.0047 48.1614 41.3221 48.1655 40.6359C48.1655 40.6252 48.1655 32.3148 48.1655 32.3148C48.1649 32.2455 48.1643 32.1803 48.0184 32.1598C47.8729 32.1395 47.8542 32.2018 47.8307 32.2807L45.6899 39.2967C45.4688 40.0221 44.7305 40.4582 43.9885 40.3029L36.7229 38.7809C35.9311 38.6148 35.4237 37.8387 35.5895 37.0467C35.7555 36.2549 36.5323 35.7482 37.3235 35.9133L38.3805 36.1348V28.6406C37.4485 28.9486 36.6458 29.5605 36.0944 30.3902C35.8635 30.7371 35.6327 31.0977 35.4077 31.4617C34.9825 32.1496 34.0798 32.3629 33.3917 31.9379C32.7034 31.5125 32.4901 30.61 32.9155 29.9217C33.1573 29.5301 33.4061 29.1422 33.6546 28.7684C34.6817 27.2229 36.2364 26.1314 38.0325 25.6955L44.1241 24.2158V22.6662C41.6626 20.7885 40.2157 17.9539 40.2157 14.7877V9.41465C40.2157 7.02207 41.1143 4.74141 42.7458 2.99277C43.2979 2.40156 44.2247 2.36953 44.8161 2.92129C45.4075 3.47324 45.4397 4.4 44.8878 4.9918C43.7641 6.1959 43.1454 7.7666 43.1454 9.41484V14.7877C43.1454 17.7496 44.8694 20.217 47.7571 21.3881C48.4346 21.6629 49.0649 21.8023 49.6303 21.8023C50.1958 21.8023 50.826 21.6629 51.5034 21.3881C54.3915 20.217 56.1153 17.7496 56.1153 14.7877V9.41465C56.1161 5.83887 53.2069 2.92969 49.6311 2.92969C48.8221 2.92969 48.1663 2.27402 48.1663 1.46484C48.1663 0.655664 48.8221 0 49.6311 0C54.8223 0 59.0458 4.22344 59.0458 9.41465V14.7875C59.0458 17.9535 57.5987 20.7883 55.1374 22.6658V24.2156L61.2292 25.6953C63.0249 26.1313 64.5798 27.2227 65.6071 28.7684C67.1587 31.1029 69.9639 35.8896 71.319 41.7162C71.5723 42.8064 71.3184 43.9346 70.6217 44.8119C69.9245 45.6896 68.8821 46.1932 67.7614 46.1932H60.1503V49.2768C63.7729 51.8783 66.895 54.6807 69.21 57.4125C69.7331 58.0295 69.6569 58.9541 69.0395 59.477C68.4223 60.0002 67.4979 59.9238 66.9749 59.3064C64.8798 56.8344 62.0548 54.2842 58.762 51.8883C53.7055 56.0328 48.0989 58.2869 42.0653 58.6014C42.1852 64.7061 42.6092 70.425 43.976 78.0039H50.4331V63.2188C50.4331 61.8863 51.1239 60.6961 52.2809 60.0354C53.4378 59.3742 54.8137 59.3842 55.9616 60.0611L67.0217 66.5842C67.0217 66.5842 68.4274 66.5855 68.4282 66.5855C69.0303 66.5855 69.571 66.3004 69.9118 65.8031C70.2481 65.3125 70.3184 64.7152 70.1048 64.1639C70.003 63.902 69.8803 63.625 69.7395 63.3406C69.3807 62.6156 69.6774 61.7369 70.4026 61.3779C71.1274 61.0189 72.0061 61.3156 72.3653 62.041C72.5446 62.4033 72.7032 62.7613 72.8364 63.1047C73.3969 64.55 73.2069 66.1781 72.3282 67.4596C71.4456 68.7469 69.988 69.515 68.4284 69.515C68.4266 69.515 57.5149 69.5053 57.5149 69.5053L55.9362 72.6771C55.7319 73.0879 55.0282 74.1861 53.363 74.2053V97.0703C53.3628 98.6857 52.0485 100 50.4331 100ZM54.1032 62.4797C53.9348 62.4797 53.8012 62.541 53.7341 62.5795C53.6225 62.6432 53.363 62.833 53.363 63.2188C53.363 63.2188 53.3647 71.2676 53.3655 71.2674L55.2969 67.3873C55.5446 66.8896 56.0526 66.5752 56.6083 66.5752H56.6096L61.2464 66.5793L54.4735 62.5846C54.3409 62.5064 54.2143 62.4797 54.1032 62.4797ZM42.0407 46.1932C42.0391 47.3496 42.035 48.4646 42.0313 49.5465C42.0237 51.7033 42.0165 53.7213 42.0288 55.6691C47.5059 55.3557 52.6083 53.2373 57.2208 49.3604V46.1932H53.7028C52.2157 46.1932 50.8198 45.6117 49.7723 44.5559C49.7243 44.5074 49.6772 44.4582 49.6311 44.4084C49.585 44.4582 49.538 44.5074 49.4899 44.5559C48.4426 45.6117 47.0467 46.1932 45.5594 46.1932H42.0407ZM51.096 40.624C51.1008 41.3199 51.3684 42.0051 51.852 42.4924C52.3452 42.9897 53.0024 43.2633 53.7026 43.2633H67.7614C68.0647 43.2633 68.2462 43.0918 68.3274 42.9896C68.4083 42.8879 68.5335 42.6734 68.4653 42.3797C67.2149 37.0025 64.6089 32.5598 63.1671 30.3898C62.6155 29.56 61.8126 28.948 60.8805 28.64V36.1344L61.938 35.9129C62.7292 35.7477 63.5061 36.2545 63.6719 37.0463C63.8378 37.8383 63.3303 38.6145 62.5385 38.7805L55.2729 40.3025C54.5319 40.4588 53.7928 40.0217 53.5716 39.2963L51.4344 32.2926C51.4073 32.2014 51.3882 32.1385 51.243 32.1594C51.0971 32.1797 51.0966 32.2449 51.0958 32.3271C51.0958 32.3273 51.096 40.616 51.096 40.624ZM41.3108 36.7482L43.2792 37.1605L45.0255 31.4375C45.1368 31.0607 45.3087 30.7219 45.5286 30.4291C44.9153 29.4504 44.4969 28.3602 44.2854 27.1912L41.3108 27.9137V36.7482ZM53.7325 30.4309C53.9542 30.7264 54.1276 31.0688 54.2403 31.45L55.9829 37.1607L57.951 36.7484V27.9141L54.9766 27.1916C54.7649 28.3611 54.3462 29.4518 53.7325 30.4309ZM48.2585 29.2389C48.9257 29.2984 49.1858 29.4121 49.6313 29.6801C50.0764 29.4119 50.3366 29.2984 51.0036 29.2389C51.7975 28.1609 52.2022 26.8715 52.2077 25.3973C52.2073 25.3771 52.2077 24.2543 52.2077 24.2543C51.3188 24.5713 50.4538 24.7316 49.6311 24.7316C48.8085 24.7316 47.9434 24.5713 47.0546 24.2543C47.0546 24.2543 47.055 25.377 47.0546 25.3969C47.0598 26.8713 47.4643 28.1609 48.2585 29.2389Z" fill="#27282C"/>
</g>
<defs>
<clipPath id="clip0_78_188">
<rect width="100" height="100" fill="white" transform="translate(0.5)"/>
</clipPath>
</defs>
</svg>
