<svg width="101" height="100" viewBox="0 0 101 100" fill="none" xmlns="http://www.w3.org/2000/svg">
<g clip-path="url(#clip0_78_185)">
<path d="M96.1017 81.3564H81.9191C80.4836 81.3564 79.2803 80.422 78.9244 79.0314C78.5687 77.6407 79.1756 76.2433 80.4346 75.5538L87.2388 71.8284L78.6408 59.6695C78.1736 59.0089 78.3307 58.0949 78.9912 57.6277C79.6519 57.1603 80.5658 57.3173 81.033 57.9781L84.0406 62.2314L89.7634 59.4191L74.6779 26.1237C73.6207 23.7905 71.5707 22.1819 69.0533 21.7106C66.5363 21.2397 64.0443 21.9971 62.2158 23.7889L59.05 26.8912L77.6055 53.1312C78.0726 53.7918 77.9156 54.7058 77.2551 55.173C76.5945 55.64 75.6805 55.483 75.2133 54.8226L56.9305 28.968L52.4739 33.3346C51.8961 33.9006 50.9684 33.8914 50.4026 33.3133C49.8364 32.7356 49.8459 31.808 50.4239 31.242L60.1656 21.6967C62.6869 19.2262 66.1229 18.1821 69.5928 18.8311C73.0633 19.4809 75.8892 21.6983 77.3465 24.9147L100.106 75.1466C100.725 76.5132 100.609 78.0818 99.7964 79.3427C98.9831 80.6034 97.6021 81.3564 96.1017 81.3564ZM85.7537 64.6539L90.5797 71.4784C90.8207 71.8195 90.9048 72.2472 90.8109 72.6542C90.7168 73.0611 90.4535 73.4085 90.0871 73.6091L81.8416 78.1234C81.79 78.1517 81.7318 78.1837 81.7629 78.3052C81.7939 78.4267 81.8605 78.4267 81.9193 78.4267H96.1019C96.6099 78.4267 97.0587 78.1819 97.3341 77.7552C97.6095 77.3284 97.647 76.8183 97.4375 76.3558L90.9732 62.089L85.7537 64.6539ZM14.4101 81.3564H3.33764C1.90697 81.3564 0.754829 80.3689 0.535884 78.955C0.316939 77.5413 1.11655 76.2517 2.48002 75.8191L12.2632 72.7136L20.1386 65.0037C20.7165 64.4378 21.644 64.4478 22.2101 65.0255C22.7759 65.6037 22.7661 66.5312 22.188 67.097L14.0634 75.0509C13.8995 75.2113 13.7005 75.331 13.4818 75.4003L3.95053 78.4259L14.4101 78.4265C15.28 78.4265 16.1234 78.1775 16.8489 77.7062C21.0909 74.953 32.3757 67.0126 45.5165 52.7744C46.9667 51.2031 47.5032 49.5564 46.9885 48.2566C46.5243 47.0842 45.2657 46.3095 43.6163 46.1789C43.6018 46.1789 43.5872 46.1789 43.5725 46.1789C42.2735 46.1789 40.0327 46.3064 38.8725 46.6529C38.0331 47.4728 37.5458 47.9474 37.3915 48.0951C35.5512 49.857 34.4376 52.2263 34.2557 54.7675C34.2302 55.1244 34.0751 55.4595 33.8194 55.7097L26.2911 63.0798C25.7132 63.6456 24.7856 63.6357 24.2196 63.058C23.6538 62.4798 23.6636 61.5523 24.2417 60.9865L31.3864 53.992C31.7368 50.94 33.1366 48.1127 35.3657 45.9791C35.5223 45.8291 45.0674 36.4896 46.3454 35.2379C46.9233 34.6719 47.8508 34.6811 48.4168 35.2592C48.9831 35.8369 48.9735 36.7645 48.3956 37.3305C45.9516 39.7248 43.9348 41.6998 42.3235 43.2771C43.0225 43.2484 43.5399 43.2494 43.6821 43.2494C43.7143 43.2496 43.7465 43.251 43.7786 43.2533C46.601 43.4551 48.8194 44.9224 49.7123 47.1783C50.6579 49.5662 49.9133 52.3302 47.6694 54.7615C47.3749 55.0806 47.0803 55.3976 46.7875 55.7105C54.1053 54.8603 59.8059 51.648 63.751 46.1445C64.2225 45.4869 65.1371 45.3361 65.7951 45.8072C66.4526 46.2785 66.6035 47.1937 66.1322 47.8513C62.0276 53.5771 56.033 57.1818 48.6555 58.4021C48.8506 58.9111 48.895 59.4826 48.7532 60.0492C48.4458 61.2755 47.8354 63.2353 47.3582 64.6261C48.2657 65.9277 48.9274 67.2017 48.5282 68.4445C48.4176 68.7886 48.0813 69.8351 44.3217 71.9404C43.6159 72.3351 42.7235 72.0839 42.3282 71.3781C41.9329 70.6726 42.1844 69.7798 42.8899 69.3843C44.0297 68.7454 45.2165 67.9458 45.6733 67.5216C45.5512 67.1847 45.1725 66.5839 44.5428 65.7296C44.2516 65.3345 44.1776 64.8197 44.346 64.3585C44.7899 63.1419 45.5151 60.8654 45.8688 59.5021L43.8624 58.7703C37.2708 65.5156 31.2889 70.6388 26.6196 74.2827C27.5464 74.9806 28.6663 75.5708 29.9643 76.0443C34.6975 77.7714 37.6466 77.3726 39.8243 74.7111C40.3368 74.0847 41.2596 73.9925 41.8856 74.5048C42.5116 75.0171 42.604 75.9402 42.0917 76.5661C38.126 81.4126 32.6981 80.1603 28.9602 78.7966C27.0931 78.1155 25.504 77.2148 24.2229 76.113C21.7349 77.9702 19.7583 79.3107 18.4437 80.1638C17.2425 80.9439 15.8474 81.3564 14.4101 81.3564Z" fill="black"/>
</g>
<defs>
<clipPath id="clip0_78_185">
<rect width="100" height="100" fill="white" transform="translate(0.5)"/>
</clipPath>
</defs>
</svg>
