<svg width="100" height="100" viewBox="0 0 100 100" fill="none" xmlns="http://www.w3.org/2000/svg">
<g clip-path="url(#clip0_78_123)">
<path d="M83.6027 67.0994C80.1133 63.6552 76.1326 60.0856 72.4828 56.8068C72.0066 56.3806 71.5303 55.9545 71.0139 55.5735C70.1516 54.9418 67.0332 53.0216 67.0332 53.0216C64.5866 51.4775 61.7891 50.4998 58.9164 50.189C57.9037 50.0787 56.8859 50.0486 55.8682 50.0286C50.4737 49.9233 45.0742 50.1389 39.6797 50.194C36.9123 50.2191 28.1738 51.7983 28.1738 51.7983C23.6517 52.9314 19.676 53.9641 16.4523 57.3232C13.2287 60.6872 11.4038 65.6104 12.5519 70.1276L12.8878 71.4762C13.4844 72.7546 14.3968 73.8626 15.3845 74.8653C19.0543 78.5702 24.0177 80.9617 29.2016 81.5181C29.2016 81.5181 36.4059 82.205 39.0179 82.2952C40.512 82.3454 42.006 82.4005 43.5 82.4507C44.8787 82.5008 46.6685 82.5459 48.0522 82.596" stroke="#27282C" stroke-width="2.5" stroke-miterlimit="10" stroke-linecap="round" stroke-linejoin="round"/>
<path d="M29.6621 64.5935C31.5121 64.1624 33.4022 63.7312 35.2872 63.9418C36.3551 64.0621 37.3929 64.383 38.4056 64.7439C41.0276 65.6714 43.5494 66.8446 46.0712 68.0127C47.2293 68.5492 48.3924 69.0906 49.5505 69.6271C51.8066 70.6749 54.0677 71.7227 56.1733 73.0462C57.1058 73.6328 58.0083 74.2695 58.8706 74.9564" stroke="#27282C" stroke-width="2.5" stroke-miterlimit="10" stroke-linecap="round" stroke-linejoin="round"/>
<path d="M66.2817 61.043C64.0006 62.2211 62.1004 64.3067 61.569 66.8185C61.4487 67.395 61.3986 67.9816 61.3685 68.5682C61.3033 70.0572 61.3835 71.5562 61.6192 73.0302" stroke="#27282C" stroke-width="2.5" stroke-miterlimit="10" stroke-linecap="round" stroke-linejoin="round"/>
<path d="M62.7529 72.1016C61.2388 73.5505 59.5042 74.7437 57.7796 75.9369C56.9172 76.5285 56.0599 77.1251 55.1976 77.7166C53.1271 79.1455 51.0515 80.5743 48.9809 82.0032C48.254 82.5045 46.9154 83.417 46.1533 83.8682" stroke="#27282C" stroke-width="2.5" stroke-miterlimit="10" stroke-linecap="round" stroke-linejoin="round"/>
<path d="M67.5343 81.9688C67.795 82.3598 67.8601 82.8461 67.8651 83.3174C67.8952 85.1373 67.1633 86.9321 66.0001 88.3308C65.9249 88.4161 65.8547 88.5063 65.7745 88.5865C64.1201 90.4315 61.7186 91.4292 59.242 91.4292H49.1699" stroke="#27282C" stroke-width="2.5" stroke-miterlimit="10" stroke-linecap="round" stroke-linejoin="round"/>
<path d="M46.728 83.4023C43.6497 83.6681 27.8372 87.3028 24.7489 87.3379C23.4605 87.353 22.1269 87.3429 20.9437 86.8366C20.4774 86.641 20.0463 86.3703 19.585 86.1748C18.9784 85.9191 18.3317 85.7938 17.71 85.5782C16.4266 85.132 15.6344 84.4903 14.2708 84.5053C13.7744 84.5103 13.2179 84.6808 13.0074 85.127C13.0074 85.127 12.6765 86.0545 15.3236 86.8667" stroke="#27282C" stroke-width="2.5" stroke-miterlimit="10" stroke-linecap="round" stroke-linejoin="round"/>
<path d="M23.126 81.3184C23.3867 81.549 23.4769 81.925 23.7527 82.1406C23.8981 82.2509 24.0785 82.306 24.254 82.3411C24.8356 82.4514 25.4372 82.3662 26.0238 82.286C27.0465 82.1406 30.205 81.925 31.2328 81.7796" stroke="#27282C" stroke-width="2.5" stroke-miterlimit="10" stroke-linecap="round" stroke-linejoin="round"/>
<path d="M18.5632 79.2812C16.7884 80.304 15.5601 82.0838 13.8355 83.1817C12.9631 83.7382 11.9755 84.1042 10.9527 84.2596C9.09773 84.5354 7.05224 84.1443 5.45795 85.127C4.44022 85.7536 3.78345 86.8566 2.78076 87.5033C1.99365 88.0097 1.01101 88.2253 0.37931 88.9121C0.203839 89.1026 0.0584481 89.3383 0.0283673 89.5939C-0.00171349 89.8546 0.640011 90.346 0.795429 90.351C2.36464 90.4312 3.92884 90.5064 5.49806 90.5866" stroke="#27282C" stroke-width="2.5" stroke-miterlimit="10" stroke-linecap="round" stroke-linejoin="round"/>
<path d="M72.7832 63.3105C74.7435 64.6842 75.7762 67.1358 75.8013 69.5272C75.8264 71.9187 74.954 74.2499 73.7257 76.3004C73.094 77.3483 72.352 78.366 71.3343 79.0478L70.111 79.9853C68.6672 80.9981 67.108 81.8353 65.5538 82.6726C64.6915 83.1388 63.8292 83.6051 62.9618 84.0663C61.6032 84.7983 60.2445 85.5302 58.8408 86.182C58.0386 86.553 57.2214 86.8989 56.3992 87.2348C53.2457 88.5183 49.9519 89.4207 46.7433 90.5537C45.535 90.9799 40.8123 91.3509 40.8123 91.3509C32.4549 91.3509 24.0924 91.3509 15.735 91.3509L13.9251 91.4511C12.0651 91.4762 10.2051 91.2005 8.43035 90.6339C8.43035 90.6339 3.9082 89.2051 3.9082 88.2926C3.9082 87.681 4.92594 87.681 4.92594 87.681C4.92594 87.681 5.14152 87.295 5.94868 87.1797C6.93132 87.0443 7.89892 87.29 8.87655 87.4654C9.50825 87.5757 10.155 87.5958 10.7917 87.5156C11.3783 87.4454 11.9498 87.29 12.5314 87.1797C13.7346 86.9541 14.9729 86.9089 16.1862 87.0493" stroke="#27282C" stroke-width="2.5" stroke-miterlimit="10" stroke-linecap="round" stroke-linejoin="round"/>
<path d="M27.2211 82.5449C26.8852 83.9286 27.0306 85.4227 27.6272 86.7111C27.6422 86.7412 27.6673 86.7813 27.7024 86.7713C27.7375 86.7663 27.7024 86.6961 27.6873 86.7262" stroke="#27282C" stroke-width="2.5" stroke-miterlimit="10" stroke-linecap="round" stroke-linejoin="round"/>
<path d="M75.3408 73.2515C76.158 73.3267 76.9802 73.2916 77.7874 73.1562" stroke="#27282C" stroke-width="2.5" stroke-miterlimit="10" stroke-linecap="round" stroke-linejoin="round"/>
<path d="M75.7461 72.0582C76.1622 72.0733 76.5833 72.0031 76.9694 71.8477" stroke="#27282C" stroke-width="2.5" stroke-miterlimit="10" stroke-linecap="round" stroke-linejoin="round"/>
<path d="M71.3938 79.168C71.3487 79.3134 71.464 79.4588 71.5893 79.549C71.7146 79.6392 71.86 79.7094 71.9302 79.8448C71.9753 79.93 71.9803 80.0253 72.0004 80.1155C72.1257 80.7472 72.8126 81.2034 72.7925 81.8502C72.7825 82.2663 72.4717 82.6273 72.4516 83.0384C72.4265 83.5598 72.8627 83.9859 73.3089 84.2466C74.5523 84.9786 76.1766 85.0939 77.1442 86.1618C77.5202 86.5729 77.7559 87.0893 78.0366 87.5705C78.8287 88.9091 80.042 89.9971 81.4558 90.6388C81.4558 90.6388 81.9973 90.8794 82.6089 90.9145" stroke="#27282C" stroke-width="2.5" stroke-miterlimit="10" stroke-linecap="round" stroke-linejoin="round"/>
<path d="M30.9922 51.457C33.1029 55.162 34.4715 59.6992 34.9879 63.9356" stroke="#27282C" stroke-width="2.5" stroke-miterlimit="10" stroke-linecap="round" stroke-linejoin="round"/>
<path d="M44.4785 50.1699C46.2332 55.6496 46.2483 62.3276 46.2132 68.083" stroke="#27282C" stroke-width="2.5" stroke-miterlimit="10" stroke-linecap="round" stroke-linejoin="round"/>
<path d="M75.8672 70.4194C77.5066 68.2285 77.7773 65.3207 78.9154 62.834" stroke="#27282C" stroke-width="2.5" stroke-miterlimit="10" stroke-linecap="round" stroke-linejoin="round"/>
<path d="M23.3457 83.9287C23.7568 83.5326 24.1077 83.0764 24.3885 82.5801" stroke="#27282C" stroke-width="2.5" stroke-miterlimit="10" stroke-linecap="round" stroke-linejoin="round"/>
<path d="M92.8872 71.5059C95.424 72.7642 98.1062 74.2432 99.3094 76.8051C100.513 79.3569 100.021 82.4603 98.7579 84.9871C97.7251 87.0526 93.3133 90.537 89.3677 90.7977C88.6257 90.8478 86.6354 90.9832 86.7657 89.3839C86.8259 88.6018 85.3319 87.5339 85.1614 86.7669C84.7553 84.9319 85.1915 83.5683 84.5748 82.7059C84.259 82.2597 82.5093 80.6504 84.3091 79.6928" stroke="#27282C" stroke-width="2.5" stroke-miterlimit="10" stroke-linecap="round" stroke-linejoin="round"/>
<path d="M86.5746 78.4548C87.0609 78.4598 87.5221 78.1189 87.7026 77.6676C87.8831 77.2114 87.7879 76.675 87.5071 76.2789C87.2564 75.928 86.8854 75.6873 86.4944 75.5018C85.8777 75.206 84.7948 75.0606 84.113 75.1208C83.4312 75.181 82.5037 74.9403 81.9422 76.0483C81.9422 76.0483 81.897 76.5747 82.5087 76.7803" stroke="#27282C" stroke-width="2.5" stroke-miterlimit="10" stroke-linecap="round" stroke-linejoin="round"/>
<path d="M87.2169 73.8151C86.4148 73.3739 85.4472 73.3288 84.615 72.9428C83.4518 72.4063 82.6346 71.1881 82.5845 69.9096C82.5344 68.6312 83.2513 67.3477 84.3693 66.7261C84.3693 66.7261 87.3423 65.1619 88.2547 64.9664C89.0569 64.7959 89.9192 64.9012 90.6562 65.2621C91.0723 65.4677 91.4533 65.7535 91.714 66.1395C92.1001 66.701 92.1953 67.4079 92.2505 68.0897C92.3257 69.0022 92.2454 70.06 92.6967 71.4237" stroke="#27282C" stroke-width="2.5" stroke-miterlimit="10" stroke-linecap="round" stroke-linejoin="round"/>
<path d="M90.5957 72.1249C91.2525 71.8091 91.9744 71.6336 92.7014 71.6035" stroke="#27282C" stroke-width="2.5" stroke-miterlimit="10" stroke-linecap="round" stroke-linejoin="round"/>
<path d="M94.4824 84.502C95.7408 83.389 96.4928 81.7646 96.6783 80.0952C96.8638 78.4257 96.4978 76.7211 95.7759 75.207" stroke="#27282C" stroke-width="2.5" stroke-miterlimit="10" stroke-linecap="round" stroke-linejoin="round"/>
<path d="M92.8135 82.2284C93.1895 81.8825 93.365 81.3761 93.5204 80.8848C93.8262 79.9122 94.1019 78.9145 94.112 77.8968C94.117 76.8791 93.8312 75.8212 93.1394 75.0742" stroke="#27282C" stroke-width="2.5" stroke-miterlimit="10" stroke-linecap="round" stroke-linejoin="round"/>
<path d="M89.2061 70.2339C88.6897 69.8629 88.4942 69.1911 88.419 68.5594C88.3438 67.9277 88.3588 67.276 88.1282 66.6844C87.8976 66.0928 87.321 65.5664 86.6943 65.6566" stroke="#27282C" stroke-width="2.5" stroke-miterlimit="10" stroke-linecap="round" stroke-linejoin="round"/>
<path d="M88.6514 80.9369C89.5237 81.1073 90.4662 80.8516 91.133 80.2651C91.7998 79.6785 92.1708 78.771 92.1107 77.8887" stroke="#27282C" stroke-width="2.5" stroke-miterlimit="10" stroke-linecap="round" stroke-linejoin="round"/>
</g>
<defs>
<clipPath id="clip0_78_123">
<rect width="100" height="100" fill="white"/>
</clipPath>
</defs>
</svg>
